<svg version="1" xmlns="http://www.w3.org/2000/svg" width="682.667" height="682.667" viewBox="0 0 512.000000 512.000000"><path d="M72 34.3c-9.4 3.2-15.6 7.1-23.1 14.6-7.1 7.1-11.8 14.6-15 23.8-2.1 5.8-2.1 6.7-2 182.3.1 195.5-.4 180.9 6.6 193.6 4.8 8.6 11.8 15.9 20.4 21.6 6.8 4.5 17.8 8.8 22.2 8.8 1 0 1.9.4 1.9 1 0 .7 58.2 1 172.5 1 94.9 0 172.5-.4 172.5-.8s2.7-1.4 6-2c19.7-4.1 39.3-23.5 44.1-43.7.6-2.8 1.6-5.4 2-6 1.3-1.3 1.2-346.8-.1-346-.6.3-1-.4-1-1.8 0-1.3-.9-5-2-8.1-5.8-16.8-18.6-30.4-35.2-37.5l-6.3-2.6-178.5-.2L78.5 32 72 34.3z"/></svg>